<svg width="36" height="23" viewBox="0 0 36 23" fill="none" xmlns="http://www.w3.org/2000/svg">
<path fill-rule="evenodd" clip-rule="evenodd" d="M0.5 11.5C0.5 11.1685 0.631696 10.8505 0.866116 10.6161C1.10054 10.3817 1.41848 10.25 1.75 10.25H31.2325L23.365 2.38499C23.1303 2.15028 22.9984 1.83193 22.9984 1.49999C22.9984 1.16805 23.1303 0.849708 23.365 0.614992C23.5997 0.380275 23.9181 0.248413 24.25 0.248413C24.5819 0.248413 24.9003 0.380275 25.135 0.614992L35.135 10.615C35.2514 10.7311 35.3438 10.869 35.4068 11.0209C35.4698 11.1728 35.5022 11.3356 35.5022 11.5C35.5022 11.6644 35.4698 11.8272 35.4068 11.9791C35.3438 12.1309 35.2514 12.2689 35.135 12.385L25.135 22.385C24.9003 22.6197 24.5819 22.7516 24.25 22.7516C23.9181 22.7516 23.5997 22.6197 23.365 22.385C23.1303 22.1503 22.9984 21.8319 22.9984 21.5C22.9984 21.1681 23.1303 20.8497 23.365 20.615L31.2325 12.75H1.75C1.41848 12.75 1.10054 12.6183 0.866116 12.3839C0.631696 12.1495 0.5 11.8315 0.5 11.5V11.5Z" fill="white"/>
</svg>
