<svg width="52" height="52" viewBox="0 0 52 52" fill="none" xmlns="http://www.w3.org/2000/svg">
<path d="M13.7222 28.8889C14.6799 28.8889 15.5984 28.5084 16.2757 27.8312C16.9529 27.154 17.3333 26.2355 17.3333 25.2778C17.3333 24.3201 16.9529 23.4016 16.2757 22.7243C15.5984 22.0471 14.6799 21.6667 13.7222 21.6667C12.7645 21.6667 11.846 22.0471 11.1688 22.7243C10.4916 23.4016 10.1111 24.3201 10.1111 25.2778C10.1111 26.2355 10.4916 27.154 11.1688 27.8312C11.846 28.5084 12.7645 28.8889 13.7222 28.8889ZM29.6111 25.2778C29.6111 26.2355 29.2307 27.154 28.5534 27.8312C27.8762 28.5084 26.9577 28.8889 26 28.8889C25.0423 28.8889 24.1238 28.5084 23.4466 27.8312C22.7693 27.154 22.3889 26.2355 22.3889 25.2778C22.3889 24.3201 22.7693 23.4016 23.4466 22.7243C24.1238 22.0471 25.0423 21.6667 26 21.6667C26.9577 21.6667 27.8762 22.0471 28.5534 22.7243C29.2307 23.4016 29.6111 24.3201 29.6111 25.2778ZM38.2778 28.8889C39.2355 28.8889 40.154 28.5084 40.8312 27.8312C41.5084 27.154 41.8889 26.2355 41.8889 25.2778C41.8889 24.3201 41.5084 23.4016 40.8312 22.7243C40.154 22.0471 39.2355 21.6667 38.2778 21.6667C37.32 21.6667 36.4016 22.0471 35.7243 22.7243C35.0471 23.4016 34.6667 24.3201 34.6667 25.2778C34.6667 26.2355 35.0471 27.154 35.7243 27.8312C36.4016 28.5084 37.32 28.8889 38.2778 28.8889ZM17.3333 36.8333C17.3333 37.7911 16.9529 38.7096 16.2757 39.3868C15.5984 40.064 14.6799 40.4444 13.7222 40.4444C12.7645 40.4444 11.846 40.064 11.1688 39.3868C10.4916 38.7096 10.1111 37.7911 10.1111 36.8333C10.1111 35.8756 10.4916 34.9571 11.1688 34.2799C11.846 33.6027 12.7645 33.2222 13.7222 33.2222C14.6799 33.2222 15.5984 33.6027 16.2757 34.2799C16.9529 34.9571 17.3333 35.8756 17.3333 36.8333ZM26 40.4444C26.9577 40.4444 27.8762 40.064 28.5534 39.3868C29.2307 38.7096 29.6111 37.7911 29.6111 36.8333C29.6111 35.8756 29.2307 34.9571 28.5534 34.2799C27.8762 33.6027 26.9577 33.2222 26 33.2222C25.0423 33.2222 24.1238 33.6027 23.4466 34.2799C22.7693 34.9571 22.3889 35.8756 22.3889 36.8333C22.3889 37.7911 22.7693 38.7096 23.4466 39.3868C24.1238 40.064 25.0423 40.4444 26 40.4444ZM0 9.02778C0 6.63346 0.951138 4.33721 2.64417 2.64417C4.33721 0.951138 6.63346 0 9.02778 0H42.9722C45.3665 0 47.6628 0.951138 49.3558 2.64417C51.0489 4.33721 52 6.63346 52 9.02778V42.9722C52 45.3665 51.0489 47.6628 49.3558 49.3558C47.6628 51.0489 45.3665 52 42.9722 52H9.02778C6.63346 52 4.33721 51.0489 2.64417 49.3558C0.951138 47.6628 0 45.3665 0 42.9722V9.02778ZM9.02778 3.61111C7.59119 3.61111 6.21344 4.18179 5.19762 5.19762C4.18179 6.21344 3.61111 7.59119 3.61111 9.02778V11.5556H48.3889V9.02778C48.3889 7.59119 47.8182 6.21344 46.8024 5.19762C45.7866 4.18179 44.4088 3.61111 42.9722 3.61111H9.02778ZM3.61111 42.9722C3.61111 44.4088 4.18179 45.7866 5.19762 46.8024C6.21344 47.8182 7.59119 48.3889 9.02778 48.3889H42.9722C44.4088 48.3889 45.7866 47.8182 46.8024 46.8024C47.8182 45.7866 48.3889 44.4088 48.3889 42.9722V15.1667H3.61111V42.9722Z" fill="white"/>
</svg>
