<svg width="33" height="27" viewBox="0 0 33 27" fill="none" xmlns="http://www.w3.org/2000/svg">
<path d="M32.4612 3.92278C31.2903 4.44162 30.0325 4.79218 28.7102 4.95063C30.0746 4.13423 31.0953 2.84932 31.582 1.33564C30.3001 2.09704 28.8972 2.63299 27.4341 2.92018C26.4503 1.86971 25.1472 1.17344 23.7271 0.939468C22.3069 0.7055 20.8493 0.946924 19.5805 1.62626C18.3116 2.30559 17.3026 3.38483 16.71 4.69641C16.1173 6.00799 15.9743 7.47853 16.3031 8.87973C13.7057 8.74931 11.1647 8.07421 8.84514 6.89822C6.52554 5.72223 4.47913 4.07165 2.83872 2.05359C2.27782 3.02114 1.9553 4.14294 1.9553 5.33765C1.95468 6.41317 2.21953 7.47221 2.72637 8.42082C3.23321 9.36942 3.96635 10.1783 4.86076 10.7756C3.82348 10.7426 2.80909 10.4623 1.90202 9.95806V10.0422C1.90191 11.5506 2.4237 13.0127 3.37884 14.1802C4.33398 15.3478 5.66365 16.1489 7.14222 16.4477C6.17997 16.7081 5.17113 16.7464 4.19189 16.5598C4.60905 17.8578 5.42165 18.9928 6.51593 19.8059C7.6102 20.6191 8.93137 21.0697 10.2945 21.0947C7.98053 22.9112 5.12282 23.8965 2.18106 23.8922C1.65996 23.8923 1.1393 23.8619 0.621765 23.801C3.60782 25.721 7.0838 26.7399 10.6338 26.7359C22.6511 26.7359 29.2206 16.7828 29.2206 8.15056C29.2206 7.87011 29.2136 7.58686 29.201 7.30641C30.4788 6.38229 31.5819 5.23795 32.4584 3.92699L32.4612 3.92278Z" fill="#F8F8F8"/>
</svg>
